:version 1.10
:name ASF
:units
  mass 1
  length 1
  angle deg
:documentation
  ASF file generated by Kaydara
:root
  axis xyz
  order  tx ty tz rx ry rz
  position 0 0 0
  orientation 0 0 0
:bonedata
  begin
    id 1
    name RightUpLegDummy
    direction -0.718183 -0.695806 0.00816078
    length 4.904
    axis 0 0 0 xyz
  end
  begin
    id 2
    name RightUpLeg
    direction 3.53373e-006 -0.995788 0.0916898
    length 17.4976
    axis -3.49089 -0.000906625 0.000286804 xyz
    dof rx ry rz
  end
  begin
    id 3
    name RightLeg
    direction 0.00371092 -0.995096 -0.0988419
    length 16.5821
    axis 3.68512 0.0193738 -0.131023 xyz
    dof rx ry rz
  end
  begin
    id 4
    name RightFoot
    direction 0.00079151 -0.46099 0.887405
    length 3.77069
    axis 4.81691e-005 -0.120479 -0.188788 xyz
    dof rx ry rz
  end
  begin
    id 5
    name RightToes
    direction 0.00124746 -0.014064 0.9999
    length 3.85082
    axis 0.000481921 0.542163 -0.142578 xyz
    dof rx ry rz
  end
  begin
    id 6
    name SpineDummy
    direction 8.3039e-015 1 4.57515e-016
    length 4.6813
    axis 0 0 0 xyz
  end
  begin
    id 7
    name Spine
    direction -3.15643e-008 0.999988 0.00495137
    length 10.1015
    axis -0.001389 0.000121418 2.40972e-006 xyz
    dof rx ry rz
  end
  begin
    id 8
    name Spine1
    direction 0 0 0
    length 0
    axis -0.001389 0.000121451 1.30017e-006 xyz
    dof rx ry rz
  end
  begin
    id 9
    name HEadDummy
    direction -1.99912e-008 0.999999 0.00127422
    length 3.43865
    axis -0.001389 0.000121451 1.30017e-006 xyz
  end
  begin
    id 10
    name HEad
    direction -0.0222688 0.980941 0.193023
    length 5.12695
    axis -0.001389 0.000121451 1.30017e-006 xyz
    dof rx ry rz
  end
  begin
    id 11
    name LeftShoulder1Dummy
    direction 0.998891 -0.0402509 -0.0244456
    length 3.5433
    axis -0.001389 0.000121451 1.30017e-006 xyz
  end
  begin
    id 12
    name LeftShoulder1
    direction 0.99951 -0.000327763 0.0313091
    length 4.05031
    axis -0.001389 0.000121451 1.30017e-006 xyz
    dof rx ry rz
  end
  begin
    id 13
    name LeftArm
    direction 0.998561 -0.00100056 -0.0536182
    length 10.3537
    axis -23.1894 0.134784 0.967509 xyz
    dof rx ry rz
  end
  begin
    id 14
    name LeftForeArm
    direction 0.998903 0.00866432 0.046012
    length 8.70632
    axis -9.91835 -0.06569 -0.177794 xyz
    dof rx ry rz
  end
  begin
    id 15
    name LeftHand
    direction 0.992938 -0.0411637 0.11126
    length 5.32135
    axis -0.00960232 -0.00340091 0.185173 xyz
    dof rx ry rz
  end
  begin
    id 16
    name RightShoulderDummy
    direction -0.998891 -0.0402509 -0.0244414
    length 3.5433
    axis -0.001389 0.000121451 1.30017e-006 xyz
  end
  begin
    id 17
    name RightShoulder
    direction -0.99951 -0.000327807 0.0313133
    length 4.05031
    axis 0.215806 0.000203643 -0.0068026 xyz
    dof rx ry rz
  end
  begin
    id 18
    name RightArm
    direction -0.998573 -0.000999564 -0.053403
    length 10.3947
    axis -23.2009 -0.134239 -0.964101 xyz
    dof rx ry rz
  end
  begin
    id 19
    name RightForeArm
    direction -0.998898 0.00868028 0.0461306
    length 8.68355
    axis -9.92322 0.0658061 0.178868 xyz
    dof rx ry rz
  end
  begin
    id 20
    name RightHand
    direction -0.992843 -0.0414603 0.112003
    length 5.28593
    axis -0.00960638 0.00330671 -0.185228 xyz
    dof rx ry rz
  end
  begin
    id 21
    name LeftUpLegDummy
    direction 0.718183 -0.695806 0.00816078
    length 4.904
    axis 0 0 0 xyz
  end
  begin
    id 22
    name LeftUpLeg
    direction -6.81752e-006 -0.995793 0.0916337
    length 17.4976
    axis -3.48766 0.00143442 -0.000524262 xyz
    dof rx ry rz
  end
  begin
    id 23
    name LeftLeg
    direction -0.00601358 -0.995091 -0.0987824
    length 16.5821
    axis 3.68178 -0.00654042 -0.000285133 xyz
    dof rx ry rz
  end
  begin
    id 24
    name LeftFoot
    direction -0.00417578 -0.460984 0.887399
    length 3.77069
    axis 1.87233e-006 4.66016e-005 -8.6538e-006 xyz
    dof rx ry rz
  end
  begin
    id 25
    name LeftToes
    direction 0.00818058 -0.00485161 0.999955
    length 3.85048
    axis 1.06247e-005 4.65869e-005 -8.65513e-006 xyz
    dof rx ry rz
  end
:hierarchy
  begin
    root RightUpLegDummy SpineDummy LeftUpLegDummy
    RightUpLegDummy RightUpLeg
    RightUpLeg RightLeg
    RightLeg RightFoot
    RightFoot RightToes
    SpineDummy Spine
    Spine Spine1
    Spine1 HEadDummy LeftShoulder1Dummy RightShoulderDummy
    HEadDummy HEad
    LeftShoulder1Dummy LeftShoulder1
    LeftShoulder1 LeftArm
    LeftArm LeftForeArm
    LeftForeArm LeftHand
    RightShoulderDummy RightShoulder
    RightShoulder RightArm
    RightArm RightForeArm
    RightForeArm RightHand
    LeftUpLegDummy LeftUpLeg
    LeftUpLeg LeftLeg
    LeftLeg LeftFoot
    LeftFoot LeftToes
  end

:SAMPLES-PER-SECOND 30
:FRAME-RANGE 1-1390
:FULLY-SPECIFIED
:DEGREES
1
root  -74.9911 38.4815 -82.1169 -179.902 29.8624 -176.537
RightUpLeg  -13.0172 -2.57421 8.64815
RightLeg  19.1607 -30.9607 -5.16175
RightFoot  -8.13658 0.098368 -5.4735
RightToes  -2.9104e-010 0 -3.6325e-017
Spine  2.76638 -2.28493 6.55546
Spine1  -0.935197 -2.99318 7.48912
HEad  -3.5673 -29.0632 8.27652
LeftShoulder1  1.74637 -1.0249 -32.521
LeftArm  55.9703 -11.5187 -46.9495
LeftForeArm  -10.0877 -15.5358 -13.3729
LeftHand  0.266126 -1.95104 -4.05477
RightShoulder  8.4985 10.8162 51.9485
RightArm  11.4963 0.716819 13.151
RightForeArm  21.323 2.11508 16.4311
RightHand  0.356845 0.79826 6.71743
LeftUpLeg  -1.21126 21.9883 4.40046
LeftLeg  46.6802 -14.5787 -15.6081
LeftFoot  -5.45378 1.31091 -24.5198
LeftToes  5.45371e-012 -1.3743e-010 1.09575e-010
2
root  -74.8728 38.3219 -82.6754 -179.136 31.613 -175.605
RightUpLeg  -13.3493 -2.5963 9.43952
RightLeg  21.3085 -29.0333 -5.83825
RightFoot  -9.59067 0.00855871 -4.79496
RightToes  -2.9104e-010 0 -3.6325e-017
Spine  3.53999 -2.47387 7.93293
Spine1  -1.07417 -2.93113 7.30612
HEad  -1.48342 -31.1191 6.86469
LeftShoulder1  1.74856 -1.00939 -32.7015
LeftArm  52.7543 -10.3248 -44.5304
LeftForeArm  -9.97283 -11.9329 -16.3614
LeftHand  0.27036 -1.2879 -4.59975
RightShoulder  8.04455 10.0598 51.92
RightArm  16.3718 2.37332 14.9483
RightForeArm  19.3515 4.4366 16.2146
RightHand  0.351121 0.881883 6.42482
LeftUpLeg  -5.96615 21.6427 5.61505
LeftLeg  52.7574 -9.50562 -12.7253
LeftFoot  -5.48878 1.10585 -20.7913
LeftToes  5.45371e-012 -1.3743e-010 1.09575e-010
3
root  -74.7169 38.4191 -83.2543 -179.138 34.6003 -175.887
RightUpLeg  -12.1967 -2.46112 9.20114
RightLeg  20.6314 -26.325 -5.0063
RightFoot  -10.0493 -0.0145602 -4.72352
RightToes  -2.9104e-010 0 -3.6325e-017
Spine  4.32411 -2.17793 7.89411
Spine1  -1.39338 -2.50481 6.7645
HEad  0.103255 -31.9764 5.52645
LeftShoulder1  1.73325 -0.956899 -32.8131
LeftArm  49.6046 -8.13726 -42.098
LeftForeArm  -12.0739 -9.43167 -18.0438
LeftHand  0.24875 -0.278398 -5.10075
RightShoulder  8.29909 10.3683 52.3579
RightArm  20.657 2.97071 15.82
RightForeArm  16.9127 7.02006 15.574
RightHand  0.355865 0.91483 6.66361
LeftUpLeg  -9.28325 20.6393 5.66317
LeftLeg  54.4389 -4.37763 -6.09164
LeftFoot  -5.43459 0.877789 -16.2928
LeftToes  5.45371e-012 -1.3743e-010 1.09575e-010
4
root  -74.5848 38.5182 -83.8468 -178.963 38.1069 -176.283
RightUpLeg  -11.3948 -1.97008 8.96746
RightLeg  20.0976 -23.3631 -4.62218
RightFoot  -10.3614 -0.0327535 -4.35107
RightToes  -2.9104e-010 0 -3.6325e-017
Spine  5.00463 -1.80253 8.09507
Spine1  -2.01296 -1.96765 6.00193
HEad  1.14012 -31.6837 4.76532
LeftShoulder1  1.66093 -0.766177 -32.8523
LeftArm  43.0512 -5.03446 -39.708
LeftForeArm  -9.39334 -7.16854 -18.8766
LeftHand  0.241843 0.362992 -5.68495
RightShoulder  8.4605 10.6298 52.3865
RightArm  22.988 3.6737 17.0596
RightForeArm  15.5903 7.9581 15.3283
RightHand  0.349879 1.02395 6.35717
LeftUpLeg  -12.0203 19.2117 5.78991
LeftLeg  53.6783 -0.990896 -0.983113
LeftFoot  -5.79641 0.61965 -12.0457
LeftToes  5.45371e-012 -1.3743e-010 1.09575e-010
5
root  -74.4388 38.6851 -84.4363 -179.224 41.9425 -177.084
RightUpLeg  -10.0747 -1.79383 8.23103
RightLeg  18.7597 -19.8267 -3.62543
RightFoot  -10.3527 -0.0343548 -4.1219
RightToes  -2.9104e-010 0 -3.6325e-017
Spine  5.6685 -1.27837 7.92556
Spine1  -2.47305 -1.32492 5.17037
HEad  1.6154 -31.3412 4.4846
LeftShoulder1  1.60205 -0.600695 -32.9831
LeftArm  38.2762 -1.47771 -37.5474
LeftForeArm  -6.6658 -5.943 -19.0968
LeftHand  0.259531 -0.187966 -5.42092
RightShoulder  8.72324 10.8728 53.0754
RightArm  27.935 3.64754 17.045
RightForeArm  10.8551 10.9017 14.153
RightHand  0.354644 0.783384 6.60854
LeftUpLeg  -13.3037 16.9042 5.94478
LeftLeg  49.739 0.825356 1.47527
LeftFoot  -6.35996 0.44604 -9.36451
LeftToes  5.45371e-012 -1.3743e-010 1.09575e-010
6
root  -74.3126 38.8495 -85.0185 -179.354 45.8902 -177.949
RightUpLeg  -9.01165 -1.9121 7.33423
RightLeg  17.3011 -16.0592 -2.52253
RightFoot  -10.2481 -0.0308896 -4.01699
RightToes  -2.9104e-010 0 -3.6325e-017
Spine  6.01749 -0.893979 8.10418
Spine1  -2.77009 -0.752167 3.66767
HEad  1.96153 -30.3097 4.16982
LeftShoulder1  1.5129 -0.389309 -32.8102
LeftArm  31.6801 2.57224 -35.6699
LeftForeArm  -1.75403 -5.70823 -18.6409
LeftHand  0.274776 -0.640572 -5.25473
RightShoulder  8.91369 11.0861 53.4265
RightArm  31.7555 3.63158 17.6432
RightForeArm  7.34587 12.8528 13.1586
RightHand  0.353255 0.809027 6.55223
LeftUpLeg  -13.782 14.0647 6.38924
LeftLeg  43.2851 1.23064 1.62625
LeftFoot  -7.01307 0.376081 -8.82927
LeftToes  5.45371e-012 -1.3743e-010 1.09575e-010
7
root  -74.1702 39.0766 -85.5749 -179.575 49.8886 -179.16
RightUpLeg  -7.91142 -1.80046 6.25353
RightLeg  15.1436 -12.2302 -1.52847
RightFoot  -9.69077 -0.00920238 -3.90444
RightToes  -2.9104e-010 0 -3.6325e-017
Spine  6.28003 -0.432878 7.50527
Spine1  -3.28957 -0.274652 2.67686
HEad  2.22703 -28.9832 3.7925
LeftShoulder1  1.43496 -0.154917 -33.1639
LeftArm  26.9001 6.69206 -33.8302
LeftForeArm  1.10241 -6.71476 -17.7925
LeftHand  0.299512 -0.906045 -5.46093
RightShoulder  8.78256 10.9193 53.257
RightArm  35.1722 3.75558 18.3009
RightForeArm  5.00809 14.2791 12.2933
RightHand  0.355016 0.789444 6.50485
LeftUpLeg  -13.3698 9.79476 6.77682
LeftLeg  34.4453 1.53698 1.48098
LeftFoot  -6.88513 0.39714 -9.13475
LeftToes  5.45371e-012 -1.3743e-010 1.09575e-010
8
root  -74.0166 39.277 -86.1037 -179.821 53.6733 -179.989
RightUpLeg  -6.60047 -1.56143 5.47465
RightLeg  13.0094 -8.71268 -0.87525
RightFoot  -9.0837 0.00608395 -3.42326
RightToes  -2.9104e-010 0 -3.6325e-017
Spine  6.66836 -0.215428 7.13402
Spine1  -3.62389 0.0663954 1.25276
HEad  2.36224 -27.4692 3.9621
LeftShoulder1  1.32783 0.0690495 -32.6021
LeftArm  22.2066 10.7778 -33.16
LeftForeArm  3.26637 -7.8736 -16.8285
LeftHand  0.306828 -1.13187 -5.37787
RightShoulder  8.93724 11.1044 53.4973
RightArm  38.1072 3.5002 18.4671
RightForeArm  3.33747 15.441 11.5041
RightHand  0.357592 0.893834 6.53435
LeftUpLeg  -12.1372 4.32156 7.8397
LeftLeg  25.0342 1.88656 1.2874
LeftFoot  -6.47282 0.416029 -8.86273
LeftToes  5.45371e-012 -1.3743e-010 1.09575e-010
9
root  -73.8511 39.4211 -86.6536 -179.909 57.2321 179.215
RightUpLeg  -5.88685 -1.42163 4.68287
RightLeg  11.7171 -5.06657 -0.563926
RightFoot  -8.87218 0.00110018 -2.83412
RightToes  -2.9104e-010 0 -3.6325e-017
Spine  6.71879 0.0914561 6.57275
Spine1  -3.87181 0.364134 0.657483
HEad  2.56097 -25.8953 3.5832
LeftShoulder1  1.26149 0.251035 -32.722
LeftArm  19.9299 13.8773 -32.5891
LeftForeArm  3.059 -9.21862 -15.9678
LeftHand  0.326524 -1.27676 -5.58951
RightShoulder  8.85476 11.074 53.1291
RightArm  39.1448 3.2321 18.4567
RightForeArm  3.17172 15.6378 11.3745
RightHand  0.351446 0.912321 6.39984
LeftUpLeg  -11.2353 -0.938077 8.95433
LeftLeg  16.9229 1.37049 0.787051
LeftFoot  -5.65484 0.418044 -7.72788
LeftToes  5.45371e-012 -1.3743e-010 1.09575e-010
10
root  -73.6793 39.4843 -87.1837 -179.626 60.2402 179.218
RightUpLeg  -5.29405 -1.2491 4.31747
RightLeg  11.1825 -2.36482 -0.472139
RightFoot  -9.05348 -0.0174696 -2.19211
RightToes  -2.9104e-010 0 -3.6325e-017
Spine  7.13635 0.172809 6.25851
Spine1  -4.47565 0.48795 0.0627812
HEad  3.0281 -24.4554 3.4743
LeftShoulder1  1.23596 0.306106 -32.5913
LeftArm  18.2226 16.0894 -32.2575
LeftForeArm  2.74195 -9.93099 -15.456
LeftHand  0.323594 -1.37064 -5.45164
RightShoulder  8.66564 10.7505 53.1739
RightArm  40.3781 3.10639 18.019
RightForeArm  2.57527 15.4272 11.6819
RightHand  0.335406 0.77791 6.25272
LeftUpLeg  -10.8766 -1.02301 9.88168
LeftLeg  11.4614 -4.19556 -0.0572037
LeftFoot  -5.00999 0.486687 -8.24777
LeftToes  5.45371e-012 -1.3743e-010 1.09575e-010
